<svg width="161" height="160" viewBox="0 0 161 160" fill="none" xmlns="http://www.w3.org/2000/svg">
<rect width="160" height="160" transform="translate(0.549805)" fill="url(#paint0_linear_2753_87539)"/>
<path d="M39.6992 56.1648C66.1477 41.9971 96.4666 41.9972 121.748 56.1648V82.9353C119.124 82.0577 116.304 81.4908 113.356 81.2927V61.2566C92.9983 51.4942 69.4814 51.4503 48.0908 61.3523V94.2683C59.2689 99.3333 71.0838 101.932 82.7852 101.766C82.6647 102.634 82.6016 103.516 82.6016 104.41C82.6016 106.39 82.9058 108.313 83.4775 110.148C68.5238 110.459 53.4921 106.701 39.6992 99.5124V56.1648ZM71.3828 70.0144C72.4269 70.0144 72.9498 70.0144 73.3486 70.2175C73.6994 70.3962 73.9843 70.6822 74.1631 71.0329C74.3662 71.4317 74.3672 71.954 74.3672 72.9978V85.6784C74.3672 86.7223 74.3661 87.2445 74.1631 87.6433C73.9843 87.9941 73.6995 88.2799 73.3486 88.4587C72.9497 88.662 72.4272 88.6618 71.3828 88.6618H66.1621C65.1178 88.6618 64.5952 88.6619 64.1963 88.4587C63.8456 88.2799 63.5606 87.994 63.3818 87.6433C63.1789 87.2445 63.1787 86.7222 63.1787 85.6784V72.9978C63.1787 71.954 63.1787 71.4317 63.3818 71.0329C63.5606 70.6822 63.8455 70.3962 64.1963 70.2175C64.5952 70.0143 65.1179 70.0144 66.1621 70.0144H71.3828ZM38.5205 87.6208H31.0615V68.9734H38.5205V87.6208ZM130.385 87.4636C128.194 85.7906 125.68 84.3982 122.926 83.3552V68.9734H130.385V87.4636ZM101.041 73.4802L98.3955 76.1081L95.3496 79.1345L98.5527 82.7341L98.6768 82.8806C98.8035 83.0384 98.9146 83.2046 99.0117 83.3757C96.57 84.3057 94.3168 85.5103 92.3125 86.9421L87.4893 81.5222C86.1404 80.0059 86.2117 77.6986 87.6514 76.2683L93.1387 70.8171L95.7842 68.1882L101.041 73.4802Z" fill="black"/>
<rect x="54.2729" y="42.8994" width="9.32373" height="11.5836" transform="rotate(-15 54.2729 42.8994)" fill="black"/>
<rect x="100.779" y="40.9688" width="9.32373" height="11.5836" transform="rotate(15 100.779 40.9688)" fill="black"/>
<path d="M95.0273 103.588C95.0273 93.7256 108.172 93.7256 111.54 93.7256C114.907 93.7256 128.05 93.7264 128.05 103.588C128.05 109.993 123.358 114.168 118.936 114.168C116.403 114.168 113.111 111.809 111.539 111.809C109.937 111.809 106.526 114.168 104.059 114.168C98.5098 114.168 95.0273 109.172 95.0273 103.588Z" stroke="black" stroke-width="6.9928"/>
<defs>
<linearGradient id="paint0_linear_2753_87539" x1="42.9375" y1="9.02954" x2="159.148" y2="80.3532" gradientUnits="userSpaceOnUse">
<stop stop-color="#F8F8FA"/>
<stop offset="1" stop-color="#E1E3EB"/>
</linearGradient>
</defs>
</svg>
